<?xml version="1.0" standalone="no"?>
<!DOCTYPE svg PUBLIC "-//W3C//DTD SVG 20010904//EN"
 "http://www.w3.org/TR/2001/REC-SVG-20010904/DTD/svg10.dtd">
<svg version="1.0" xmlns="http://www.w3.org/2000/svg"
 width="1100.000000pt" height="300.000000pt" viewBox="0 0 1100.000000 300.000000"
 preserveAspectRatio="xMidYMid meet">

<g transform="translate(0.000000,300.000000) scale(0.100000,-0.100000)"
fill="#000000" stroke="none">
<path d="M1340 2220 l0 -541 428 4 c257 3 447 9 477 15 28 6 65 14 83 18 17 3
32 10 32 15 0 5 9 9 20 9 11 0 20 3 20 8 0 4 16 16 35 27 39 20 121 105 138
142 5 13 14 23 19 23 4 0 8 9 8 20 0 11 5 20 10 20 6 0 10 11 10 25 0 14 4 25
9 25 14 0 23 77 23 200 0 123 -9 200 -23 200 -5 0 -9 7 -9 17 0 20 -47 103
-72 124 -10 9 -18 20 -18 24 0 10 -47 50 -79 67 -14 7 -28 15 -31 19 -11 11
-87 43 -140 58 -45 13 -136 16 -497 18 l-443 3 0 -540z m883 317 c87 -39 145
-111 162 -197 24 -124 16 -197 -32 -295 -25 -50 -86 -105 -117 -105 -9 0 -16
-4 -16 -10 0 -5 -11 -10 -24 -10 -14 0 -27 -4 -30 -9 -10 -15 -124 -23 -351
-25 l-220 -1 -3 330 c-1 181 0 336 3 344 4 11 55 12 288 9 280 -4 283 -5 340
-31z"/>
<path d="M8578 2733 c-63 -35 -88 -87 -88 -182 0 -79 15 -123 60 -169 17 -18
28 -37 25 -42 -3 -5 -31 -23 -63 -41 -31 -18 -58 -36 -60 -41 -2 -4 -12 -8
-23 -8 -10 0 -19 -4 -19 -10 0 -5 -7 -10 -15 -10 -8 0 -15 -4 -15 -9 0 -5 -13
-14 -29 -21 -36 -15 -86 -63 -106 -102 -20 -41 -21 -236 -1 -293 19 -56 64
-98 120 -112 32 -9 136 -13 336 -13 274 0 293 1 335 21 25 12 45 25 45 30 0 5
5 9 10 9 6 0 31 20 57 45 26 25 49 42 52 38 3 -4 28 -26 56 -48 27 -22 63 -52
79 -67 l29 -28 168 0 c93 0 169 3 169 8 0 4 -20 20 -45 36 -25 15 -51 36 -58
45 -6 9 -28 28 -47 41 -19 14 -48 39 -65 55 -16 17 -46 42 -65 55 -63 44 -64
48 -1 94 27 20 70 56 97 81 27 25 53 45 57 45 10 0 37 26 37 35 0 8 -47 55
-55 55 -4 0 -23 16 -43 35 -20 19 -40 35 -44 35 -4 0 -18 -11 -32 -25 -14 -14
-28 -25 -31 -25 -3 0 -16 -10 -29 -22 -12 -13 -39 -36 -61 -53 -21 -16 -48
-40 -61 -52 -28 -28 -44 -29 -70 -5 -10 9 -42 35 -69 57 -28 22 -65 55 -83 72
-18 18 -36 33 -41 33 -5 0 -27 18 -50 40 -22 22 -44 40 -49 40 -4 0 -30 22
-58 48 -28 26 -68 59 -88 72 -32 23 -36 30 -36 70 l0 45 164 -1 c89 -1 168 -4
175 -8 6 -4 11 -34 11 -73 l0 -65 43 6 c23 4 62 9 87 12 25 4 51 11 58 16 15
12 17 124 2 133 -5 3 -10 19 -10 34 0 17 -11 39 -27 55 -52 52 -75 56 -342 56
l-246 0 -47 -27z m189 -545 c21 -18 40 -36 41 -40 2 -5 8 -8 14 -8 6 0 18 -8
27 -18 9 -10 38 -36 66 -57 27 -22 63 -52 80 -67 16 -16 33 -28 38 -28 16 0 5
-26 -19 -45 -14 -10 -35 -27 -46 -37 -19 -16 -44 -18 -270 -18 l-248 0 0 94
c0 86 2 95 20 101 11 3 20 10 20 14 0 4 25 20 55 36 30 15 55 31 55 35 0 3 16
12 35 20 19 8 35 17 35 20 0 7 38 28 52 29 4 1 24 -14 45 -31z"/>
<path d="M2930 2572 c-6 -2 -10 -165 -10 -448 l0 -444 105 0 105 0 0 165 0
165 108 0 107 0 65 -61 c36 -34 96 -89 134 -123 38 -33 89 -80 114 -103 l45
-43 154 0 c95 0 153 4 153 10 0 6 -4 10 -8 10 -5 0 -17 8 -28 18 -10 10 -37
31 -59 47 -22 16 -47 37 -55 45 -8 8 -33 28 -55 45 -22 16 -47 37 -56 47 -9
10 -19 18 -23 18 -3 0 -14 7 -23 15 -10 8 -35 28 -57 45 l-39 30 78 0 c74 0
118 8 175 34 34 15 48 33 61 81 12 44 15 274 4 326 -9 41 -41 89 -60 89 -7 0
-15 6 -17 13 -4 9 -83 13 -344 15 -186 1 -390 3 -452 5 -62 1 -117 1 -122 -1z
m768 -170 c20 -12 22 -19 22 -112 l0 -99 -37 -11 c-25 -7 -130 -10 -293 -8
l-255 3 -3 117 c-2 104 -1 117 15 121 10 3 133 5 273 4 186 -2 261 -6 278 -15z"/>
<path d="M4235 2562 c-3 -8 -5 -209 -5 -448 l0 -434 483 2 482 3 3 60 c2 32 1
69 -3 82 l-5 23 -371 0 -370 0 3 108 3 107 213 3 213 2 -3 73 -3 72 -210 5
-210 5 -3 93 -3 92 371 0 370 0 0 75 c0 51 -4 77 -12 80 -7 3 -221 6 -475 7
-378 3 -464 1 -468 -10z"/>
<path d="M5459 2566 c-5 -6 -9 -185 -9 -448 l0 -438 485 0 486 0 -3 83 -3 82
-372 3 -373 2 0 94 c0 52 3 101 6 110 5 14 34 16 216 16 l209 0 -3 73 -3 72
-210 5 -210 5 0 90 0 90 365 5 365 5 3 73 c2 52 -1 74 -10 77 -26 10 -929 10
-939 1z"/>
<path d="M6793 2563 c-43 -6 -98 -59 -112 -108 -23 -86 -8 -335 21 -335 5 0 8
-6 8 -13 0 -8 12 -19 28 -26 15 -8 35 -17 44 -22 10 -5 171 -9 358 -9 l340 0
0 -100 0 -100 -325 0 c-329 0 -332 0 -326 34 1 6 0 20 -4 33 -6 24 -38 32 -50
13 -3 -5 -27 -10 -53 -10 -67 -1 -82 -16 -82 -82 0 -66 28 -114 80 -140 31
-15 79 -17 433 -18 420 0 432 1 485 47 12 11 22 27 22 36 0 9 5 19 10 22 6 4
10 72 10 171 0 103 -4 164 -10 164 -5 0 -10 7 -10 16 0 24 -44 61 -88 75 -25
9 -142 14 -370 16 l-333 4 3 87 3 87 303 3 302 2 0 -40 0 -41 53 7 c28 4 60
11 69 15 9 5 28 9 42 9 31 0 34 11 22 73 -8 36 -22 62 -49 91 l-38 41 -377 1
c-207 1 -391 -1 -409 -3z"/>
<path d="M1468 1307 c-21 -6 -38 -14 -38 -19 0 -4 -6 -8 -13 -8 -15 0 -48 -51
-61 -95 -13 -43 -19 -303 -7 -334 5 -14 12 -38 15 -52 6 -29 38 -69 55 -69 6
0 11 -4 11 -9 0 -23 117 -31 480 -31 l380 0 0 -125 0 -125 -385 0 -385 0 0 55
0 55 -39 0 c-22 0 -43 -5 -46 -10 -3 -5 -26 -10 -51 -10 -24 0 -44 -4 -44 -10
0 -5 -9 -10 -20 -10 -18 0 -20 -7 -20 -64 0 -36 5 -68 10 -71 6 -3 10 -13 10
-22 0 -26 40 -73 80 -93 37 -19 61 -20 509 -20 460 0 471 0 508 21 45 25 73
53 73 73 0 8 6 16 13 19 9 3 12 52 12 203 0 169 -3 204 -17 234 -52 104 -79
109 -555 110 -345 0 -372 1 -377 18 -3 9 -4 60 -3 112 l2 95 355 0 355 0 1
-49 c0 -28 6 -52 12 -54 6 -2 43 4 84 13 40 9 88 19 106 22 28 5 32 9 32 35 0
92 -60 195 -125 213 -46 13 -872 15 -917 2z"/>
<path d="M2899 1116 c-57 -15 -97 -52 -112 -102 -16 -56 -22 -587 -7 -639 18
-61 35 -88 70 -112 l33 -23 479 0 c335 0 486 3 501 11 36 19 77 61 77 80 0 10
5 21 10 24 6 4 10 123 10 325 0 202 -4 321 -10 325 -5 3 -10 15 -10 26 0 31
-42 66 -101 83 -44 14 -118 16 -473 15 -301 0 -434 -4 -467 -13z m841 -435 c0
-236 -2 -270 -16 -275 -20 -8 -678 -8 -698 0 -14 5 -16 39 -16 274 0 169 4
270 10 272 5 2 170 2 365 0 l355 -2 0 -269z"/>
<path d="M4240 685 l0 -445 100 0 100 0 0 290 c0 307 2 320 44 249 9 -16 27
-40 39 -52 12 -12 40 -44 62 -72 22 -27 47 -57 55 -65 9 -8 47 -53 85 -100 39
-46 87 -102 108 -123 33 -34 40 -37 55 -25 28 22 42 36 42 44 0 3 8 14 18 23
10 9 31 34 47 56 17 22 37 47 45 55 8 8 28 33 45 55 16 22 36 47 45 55 8 8 29
33 45 55 39 53 47 63 68 86 9 10 17 22 17 25 0 11 28 33 34 27 3 -4 6 -136 6
-295 l0 -288 90 -1 c50 -1 96 -2 103 -3 17 -1 28 866 10 883 -7 6 -46 11 -89
11 -75 0 -77 -1 -113 -38 -20 -20 -50 -55 -66 -77 -17 -22 -41 -51 -55 -65
-14 -14 -38 -43 -55 -65 -16 -22 -39 -49 -50 -61 -11 -11 -33 -38 -50 -59 -16
-22 -40 -49 -52 -61 -13 -13 -23 -25 -23 -28 0 -3 -14 -21 -32 -40 l-31 -34
-26 27 c-14 16 -39 46 -56 67 -16 21 -40 48 -52 60 -13 13 -23 26 -23 29 0 3
-15 21 -32 40 -60 63 -78 84 -78 90 0 3 -15 21 -32 39 -18 18 -42 45 -52 60
-11 15 -37 47 -59 71 l-41 45 -98 0 -98 0 0 -445z"/>
<path d="M5810 685 l0 -445 100 0 100 0 0 286 c0 257 2 286 16 280 9 -3 18 -6
20 -6 2 0 4 -5 4 -10 0 -6 10 -21 23 -34 34 -35 67 -75 67 -82 0 -3 12 -18 28
-32 15 -15 40 -45 57 -67 16 -22 36 -47 45 -55 9 -8 34 -37 55 -65 106 -131
123 -139 175 -75 17 21 39 48 48 59 37 43 48 57 72 91 13 19 39 51 57 70 18
19 33 39 33 44 0 5 8 16 18 25 10 9 31 34 47 56 17 22 38 47 47 56 10 9 18 21
18 28 0 6 5 11 10 11 6 0 13 0 16 0 3 0 5 -131 4 -290 l-1 -290 106 0 105 0 0
445 0 445 -90 0 c-84 0 -90 -1 -107 -26 -10 -14 -34 -42 -53 -63 -19 -21 -44
-50 -55 -66 -11 -15 -35 -43 -52 -61 -18 -18 -33 -36 -33 -39 0 -3 -10 -16
-22 -29 -34 -34 -68 -75 -68 -82 0 -2 -10 -15 -22 -28 -44 -44 -88 -96 -88
-101 0 -4 -6 -13 -14 -20 -16 -16 -30 -6 -81 59 -16 21 -41 51 -55 66 -46 51
-70 80 -70 86 0 3 -13 18 -28 32 -15 15 -41 45 -57 67 -17 22 -43 53 -59 70
-15 16 -40 46 -55 65 -51 68 -55 70 -163 70 l-98 0 0 -445z"/>
<path d="M7370 685 l0 -445 495 0 495 0 0 80 0 80 -385 0 -385 0 0 110 0 110
220 0 220 0 0 75 0 75 -209 0 c-167 0 -211 3 -220 14 -8 9 -11 45 -9 98 l3 83
374 5 374 5 3 60 c6 105 60 95 -492 95 l-484 0 0 -445z"/>
<path d="M8593 1123 c-10 -4 -13 -102 -13 -444 l0 -439 110 0 110 0 0 165 0
165 105 0 106 0 33 -33 c18 -17 61 -57 95 -87 35 -30 84 -75 110 -100 26 -25
65 -60 86 -77 l38 -33 138 0 c75 0 144 -3 153 -6 11 -4 16 -1 16 10 0 9 -4 16
-8 16 -9 0 -50 32 -94 73 -17 15 -33 27 -37 27 -4 0 -23 15 -43 33 -20 17 -62
50 -93 72 -61 43 -115 89 -115 99 0 3 40 6 89 6 98 0 147 15 190 58 25 26 26
29 30 179 4 182 -2 230 -32 264 -48 56 -81 59 -541 58 -232 0 -427 -3 -433 -6z
m779 -167 c24 -18 28 -187 5 -211 -13 -13 -57 -15 -296 -15 l-281 0 0 120 0
120 278 0 c212 -1 281 -4 294 -14z"/>
</g>
</svg>
